<svg width="13" height="13" viewBox="0 0 13 13" fill="none" xmlns="http://www.w3.org/2000/svg">
<path d="M3.77977 6.80095C4.29842 7.86129 5.15792 8.71689 6.2206 9.2307C6.29835 9.26754 6.38436 9.2835 6.47015 9.27701C6.55595 9.27052 6.63857 9.2418 6.7099 9.19368L8.27462 8.15028C8.34383 8.10414 8.42345 8.07598 8.50628 8.06838C8.58911 8.06077 8.67253 8.07394 8.74898 8.10671L11.6763 9.36127C11.7757 9.40351 11.8588 9.47692 11.9128 9.57045C11.9669 9.66398 11.9892 9.77255 11.9762 9.87981C11.8837 10.6038 11.5304 11.2693 10.9826 11.7516C10.4347 12.2339 9.72989 12.5 9 12.5C6.74566 12.5 4.58365 11.6045 2.98959 10.0104C1.39553 8.41635 0.5 6.25434 0.5 4C0.500038 3.27011 0.766121 2.56526 1.24843 2.01742C1.73073 1.46959 2.39618 1.11634 3.12019 1.02381C3.22745 1.01083 3.33602 1.03306 3.42955 1.08715C3.52307 1.14124 3.59649 1.22426 3.63873 1.3237L4.89439 4.25357C4.92687 4.32935 4.9401 4.41199 4.93291 4.49413C4.92572 4.57626 4.89833 4.65535 4.85318 4.72434L3.81341 6.31307C3.76608 6.38454 3.7381 6.46706 3.73221 6.55257C3.72631 6.63809 3.7427 6.72367 3.77977 6.80095V6.80095Z" stroke="#4F5665" stroke-linecap="round" stroke-linejoin="round"/>
</svg>
