<svg width="24" height="28" viewBox="0 0 24 28" fill="none" xmlns="http://www.w3.org/2000/svg">
<path fill-rule="evenodd" clip-rule="evenodd" d="M12.8205 0.800989L21.6773 3.82358C22.6679 4.16224 23.3334 5.07422 23.3334 6.09552V14.95C23.3334 17.6339 22.3359 20.2325 20.5261 22.2605C19.6974 23.1898 18.634 23.9884 17.2756 24.7031L12.4885 27.2163C12.3389 27.2937 12.1743 27.3337 12.0083 27.3337C11.8436 27.3337 11.679 27.2937 11.5294 27.2163L6.73263 24.7017C5.37153 23.9857 4.3068 23.1871 3.47944 22.2618C1.66693 20.2312 0.666687 17.6312 0.666687 14.9446C0.666687 14.4033 1.11947 13.9633 1.67653 13.9633C2.2336 13.9633 2.68638 14.4033 2.68638 14.9446C2.68638 17.1606 3.50962 19.3019 5.00381 20.9765C5.66927 21.7218 6.54877 22.3751 7.69171 22.9751L12.0083 25.2377L16.3152 22.9764C17.4554 22.3778 18.3349 21.7245 19.0017 20.9765C20.4932 19.3032 21.315 17.1646 21.315 14.95V6.09552C21.315 5.90619 21.1915 5.7382 21.0091 5.67553L12.1523 2.65294C12.0549 2.61961 11.9465 2.61961 11.8477 2.65294L2.99235 5.67553C2.80987 5.7382 2.68638 5.90619 2.68638 6.09552V8.62879C2.68638 9.17145 2.2336 9.61143 1.67653 9.61143C1.11947 9.61143 0.666687 9.17145 0.666687 8.62879V6.09552C0.666687 5.07422 1.33352 4.16224 2.32415 3.82358L11.1795 0.800989C11.7091 0.622327 12.2923 0.622327 12.8205 0.800989ZM11.0483 17.0903C10.7794 17.0903 10.5242 16.9863 10.3349 16.8023L7.7883 14.3277C7.39452 13.9437 7.39452 13.3251 7.7883 12.9411C8.18346 12.5571 8.82147 12.5571 9.21526 12.9411L11.0483 14.721L15.5789 10.3198C15.9727 9.93716 16.6121 9.93716 17.0059 10.3198C17.3997 10.7025 17.3997 11.3238 17.0059 11.7064L11.7618 16.8023C11.5725 16.9863 11.3159 17.0903 11.0483 17.0903Z" fill="#2948FF"/>
</svg>
