<svg width="59" height="58" viewBox="0 0 59 58" fill="none" xmlns="http://www.w3.org/2000/svg">
<circle cx="29.5" cy="29" r="29" fill="#2948FF"/>
<path fill-rule="evenodd" clip-rule="evenodd" d="M30.3205 15.801L39.1772 18.8236C40.1678 19.1622 40.8333 20.0742 40.8333 21.0955V29.95C40.8333 32.6339 39.8358 35.2325 38.026 37.2605C37.1973 38.1898 36.1339 38.9884 34.7756 39.7031L29.9884 42.2163C29.8389 42.2937 29.6742 42.3337 29.5082 42.3337C29.3435 42.3337 29.1789 42.2937 29.0293 42.2163L24.2326 39.7017C22.8715 38.9857 21.8067 38.1871 20.9794 37.2618C19.1669 35.2312 18.1666 32.6312 18.1666 29.9446C18.1666 29.4033 18.6194 28.9633 19.1765 28.9633C19.7335 28.9633 20.1863 29.4033 20.1863 29.9446C20.1863 32.1606 21.0096 34.3019 22.5038 35.9765C23.1692 36.7218 24.0487 37.3751 25.1916 37.9751L29.5082 40.2377L33.8151 37.9764C34.9553 37.3778 35.8348 36.7245 36.5017 35.9765C37.9931 34.3032 38.815 32.1646 38.815 29.95V21.0955C38.815 20.9062 38.6915 20.7382 38.509 20.6755L29.6523 17.6529C29.5548 17.6196 29.4464 17.6196 29.3477 17.6529L20.4923 20.6755C20.3098 20.7382 20.1863 20.9062 20.1863 21.0955V23.6288C20.1863 24.1714 19.7335 24.6114 19.1765 24.6114C18.6194 24.6114 18.1666 24.1714 18.1666 23.6288V21.0955C18.1666 20.0742 18.8335 19.1622 19.8241 18.8236L28.6795 15.801C29.2091 15.6223 29.7922 15.6223 30.3205 15.801ZM28.5483 32.0903C28.2794 32.0903 28.0242 31.9863 27.8348 31.8023L25.2882 29.3277C24.8945 28.9437 24.8945 28.3251 25.2882 27.9411C25.6834 27.5571 26.3214 27.5571 26.7152 27.9411L28.5483 29.721L33.0789 25.3198C33.4727 24.9372 34.112 24.9372 34.5058 25.3198C34.8996 25.7025 34.8996 26.3238 34.5058 26.7064L29.2618 31.8023C29.0724 31.9863 28.8158 32.0903 28.5483 32.0903Z" fill="white"/>
</svg>
