<svg width="165" height="20" viewBox="0 0 165 20" fill="none" xmlns="http://www.w3.org/2000/svg">
<path d="M13.2218 8.13165L9.25462 7.55508L7.48118 3.95977C7.43274 3.86133 7.35306 3.78165 7.25462 3.73321C7.00774 3.61133 6.70774 3.7129 6.58431 3.95977L4.81087 7.55508L0.843682 8.13165C0.734307 8.14727 0.634307 8.19883 0.557744 8.27696C0.465184 8.37209 0.41418 8.50008 0.415938 8.63281C0.417695 8.76553 0.472072 8.89212 0.567119 8.98477L3.43743 11.7832L2.75931 15.7348C2.7434 15.8267 2.75358 15.9212 2.78867 16.0077C2.82376 16.0941 2.88237 16.169 2.95785 16.2238C3.03333 16.2786 3.12266 16.3112 3.21571 16.3178C3.30876 16.3245 3.40181 16.3049 3.48431 16.2613L7.03274 14.3957L10.5812 16.2613C10.6781 16.3129 10.7906 16.3301 10.8984 16.3113C11.1702 16.2645 11.3531 16.0066 11.3062 15.7348L10.6281 11.7832L13.4984 8.98477C13.5765 8.90821 13.6281 8.80821 13.6437 8.69883C13.6859 8.4254 13.4952 8.17227 13.2218 8.13165Z" fill="#FF8906"/>
<path d="M41.4554 8.13165L37.4883 7.55508L35.7148 3.95977C35.6664 3.86133 35.5867 3.78165 35.4883 3.73321C35.2414 3.61133 34.9414 3.7129 34.8179 3.95977L33.0445 7.55508L29.0773 8.13165C28.9679 8.14727 28.8679 8.19883 28.7914 8.27696C28.6988 8.37209 28.6478 8.50008 28.6496 8.63281C28.6513 8.76553 28.7057 8.89212 28.8008 8.98477L31.6711 11.7832L30.9929 15.7348C30.977 15.8267 30.9872 15.9212 31.0223 16.0077C31.0574 16.0941 31.116 16.169 31.1915 16.2238C31.267 16.2786 31.3563 16.3112 31.4494 16.3178C31.5424 16.3245 31.6355 16.3049 31.7179 16.2613L35.2664 14.3957L38.8148 16.2613C38.9117 16.3129 39.0242 16.3301 39.132 16.3113C39.4039 16.2645 39.5867 16.0066 39.5398 15.7348L38.8617 11.7832L41.732 8.98477C41.8101 8.90821 41.8617 8.80821 41.8773 8.69883C41.9195 8.4254 41.7289 8.17227 41.4554 8.13165Z" fill="#FF8906"/>
<path d="M69.6891 8.13165L65.7219 7.55508L63.9485 3.95977C63.9 3.86133 63.8203 3.78165 63.7219 3.73321C63.475 3.61133 63.175 3.7129 63.0516 3.95977L61.2782 7.55508L57.311 8.13165C57.2016 8.14727 57.1016 8.19883 57.025 8.27696C56.9325 8.37209 56.8815 8.50008 56.8832 8.63281C56.885 8.76553 56.9394 8.89212 57.0344 8.98477L59.9047 11.7832L59.2266 15.7348C59.2107 15.8267 59.2209 15.9212 59.256 16.0077C59.291 16.0941 59.3497 16.169 59.4251 16.2238C59.5006 16.2786 59.5899 16.3112 59.683 16.3178C59.776 16.3245 59.8691 16.3049 59.9516 16.2613L63.5 14.3957L67.0485 16.2613C67.1453 16.3129 67.2578 16.3301 67.3657 16.3113C67.6375 16.2645 67.8203 16.0066 67.7735 15.7348L67.0953 11.7832L69.9657 8.98477C70.0438 8.90821 70.0953 8.80821 70.111 8.69883C70.1532 8.4254 69.9625 8.17227 69.6891 8.13165Z" fill="#FF8906"/>
<path d="M97.9227 8.13165L93.9555 7.55508L92.1821 3.95977C92.1337 3.86133 92.054 3.78165 91.9555 3.73321C91.7087 3.61133 91.4087 3.7129 91.2852 3.95977L89.5118 7.55508L85.5446 8.13165C85.4352 8.14727 85.3352 8.19883 85.2587 8.27696C85.1661 8.37209 85.1151 8.50008 85.1169 8.63281C85.1186 8.76553 85.173 8.89212 85.268 8.98477L88.1384 11.7832L87.4602 15.7348C87.4443 15.8267 87.4545 15.9212 87.4896 16.0077C87.5247 16.0941 87.5833 16.169 87.6588 16.2238C87.7343 16.2786 87.8236 16.3112 87.9166 16.3178C88.0097 16.3245 88.1027 16.3049 88.1852 16.2613L91.7337 14.3957L95.2821 16.2613C95.379 16.3129 95.4915 16.3301 95.5993 16.3113C95.8712 16.2645 96.054 16.0066 96.0071 15.7348L95.329 11.7832L98.1993 8.98477C98.2774 8.90821 98.329 8.80821 98.3446 8.69883C98.3868 8.4254 98.1962 8.17227 97.9227 8.13165Z" fill="#FF8906"/>
<path d="M126.156 8.13165L122.189 7.55508L120.416 3.95977C120.367 3.86133 120.288 3.78165 120.189 3.73321C119.942 3.61133 119.642 3.7129 119.519 3.95977L117.745 7.55508L113.778 8.13165C113.669 8.14727 113.569 8.19883 113.492 8.27696C113.4 8.37209 113.349 8.50008 113.351 8.63281C113.352 8.76553 113.407 8.89212 113.502 8.98477L116.372 11.7832L115.694 15.7348C115.678 15.8267 115.688 15.9212 115.723 16.0077C115.758 16.0941 115.817 16.169 115.892 16.2238C115.968 16.2786 116.057 16.3112 116.15 16.3178C116.243 16.3245 116.336 16.3049 116.419 16.2613L119.967 14.3957L123.516 16.2613C123.613 16.3129 123.725 16.3301 123.833 16.3113C124.105 16.2645 124.288 16.0066 124.241 15.7348L123.563 11.7832L126.433 8.98477C126.511 8.90821 126.563 8.80821 126.578 8.69883C126.62 8.4254 126.43 8.17227 126.156 8.13165Z" fill="#FF8906"/>
<path d="M145.952 16.096C145.152 16.096 144.389 15.968 143.664 15.712C142.939 15.4453 142.363 15.0933 141.936 14.656L142.496 13.744C142.848 14.1173 143.328 14.4267 143.936 14.672C144.555 14.9173 145.221 15.04 145.936 15.04C146.885 15.04 147.605 14.832 148.096 14.416C148.597 13.9893 148.848 13.4347 148.848 12.752C148.848 12.272 148.731 11.8613 148.496 11.52C148.272 11.168 147.888 10.896 147.344 10.704C146.8 10.512 146.053 10.416 145.104 10.416H142.72L143.296 4.8H149.424V5.824H143.76L144.352 5.264L143.856 9.968L143.264 9.392H145.36C146.491 9.392 147.397 9.53067 148.08 9.808C148.763 10.0853 149.253 10.4747 149.552 10.976C149.861 11.4667 150.016 12.0427 150.016 12.704C150.016 13.3333 149.867 13.9093 149.568 14.432C149.269 14.944 148.821 15.3493 148.224 15.648C147.627 15.9467 146.869 16.096 145.952 16.096ZM152.343 16.08C152.108 16.08 151.905 15.9947 151.735 15.824C151.575 15.6533 151.495 15.4453 151.495 15.2C151.495 14.944 151.575 14.736 151.735 14.576C151.905 14.416 152.108 14.336 152.343 14.336C152.577 14.336 152.775 14.416 152.935 14.576C153.105 14.736 153.191 14.944 153.191 15.2C153.191 15.4453 153.105 15.6533 152.935 15.824C152.775 15.9947 152.577 16.08 152.343 16.08ZM159.161 16.096C158.297 16.096 157.529 15.872 156.857 15.424C156.185 14.9653 155.657 14.3147 155.273 13.472C154.889 12.6187 154.697 11.5947 154.697 10.4C154.697 9.20533 154.889 8.18667 155.273 7.344C155.657 6.49067 156.185 5.84 156.857 5.392C157.529 4.93333 158.297 4.704 159.161 4.704C160.025 4.704 160.793 4.93333 161.465 5.392C162.137 5.84 162.665 6.49067 163.049 7.344C163.444 8.18667 163.641 9.20533 163.641 10.4C163.641 11.5947 163.444 12.6187 163.049 13.472C162.665 14.3147 162.137 14.9653 161.465 15.424C160.793 15.872 160.025 16.096 159.161 16.096ZM159.161 15.04C159.823 15.04 160.399 14.864 160.889 14.512C161.38 14.1493 161.764 13.6267 162.041 12.944C162.319 12.2507 162.457 11.4027 162.457 10.4C162.457 9.39733 162.319 8.55467 162.041 7.872C161.764 7.17867 161.38 6.656 160.889 6.304C160.399 5.94133 159.823 5.76 159.161 5.76C158.521 5.76 157.951 5.94133 157.449 6.304C156.948 6.656 156.559 7.17867 156.281 7.872C156.004 8.55467 155.865 9.39733 155.865 10.4C155.865 11.4027 156.004 12.2507 156.281 12.944C156.559 13.6267 156.948 14.1493 157.449 14.512C157.951 14.864 158.521 15.04 159.161 15.04Z" fill="white"/>
</svg>
