<svg width="59" height="58" viewBox="0 0 59 58" fill="none" xmlns="http://www.w3.org/2000/svg">
<circle cx="29.5" cy="29" r="29" fill="#2948FF"/>
<path d="M41.682 30H37.682C37.1515 30 36.6428 30.2107 36.2678 30.5858C35.8927 30.9609 35.682 31.4696 35.682 32V37C35.682 37.5304 35.8927 38.0391 36.2678 38.4142C36.6428 38.7893 37.1515 39 37.682 39H39.682C40.2124 39 40.7211 38.7893 41.0962 38.4142C41.4713 38.0391 41.682 37.5304 41.682 37V30ZM41.682 30C41.682 28.4165 41.3686 26.8486 40.7598 25.3868C40.151 23.925 39.259 22.5981 38.135 21.4826C37.0111 20.3672 35.6775 19.4852 34.2111 18.8875C32.7447 18.2899 31.1745 17.9883 29.591 18.0003C28.0075 17.9883 26.4373 18.2899 24.9709 18.8875C23.5045 19.4852 22.1709 20.3672 21.0469 21.4826C19.923 22.5981 19.0309 23.925 18.4222 25.3868C17.8134 26.8486 17.5 28.4165 17.5 30V37C17.5 37.5304 17.7107 38.0391 18.0858 38.4142C18.4609 38.7893 18.9696 39 19.5 39H21.5C22.0304 39 22.5391 38.7893 22.9142 38.4142C23.2893 38.0391 23.5 37.5304 23.5 37V32C23.5 31.4696 23.2893 30.9609 22.9142 30.5858C22.5391 30.2107 22.0304 30 21.5 30H17.5" stroke="white" stroke-width="2" stroke-linecap="round" stroke-linejoin="round"/>
</svg>
