<svg width="14" height="14" viewBox="0 0 14 14" fill="none" xmlns="http://www.w3.org/2000/svg">
<path d="M13.1564 5.13165L9.18919 4.55508L7.41575 0.959771C7.36731 0.861334 7.28763 0.781646 7.18919 0.733209C6.94231 0.611334 6.64231 0.712896 6.51888 0.959771L4.74544 4.55508L0.778252 5.13165C0.668877 5.14727 0.568877 5.19883 0.492314 5.27696C0.399755 5.37209 0.34875 5.50008 0.350508 5.63281C0.352266 5.76553 0.406642 5.89212 0.501689 5.98477L3.372 8.78321L2.69388 12.7348C2.67797 12.8267 2.68815 12.9212 2.72324 13.0077C2.75833 13.0941 2.81694 13.169 2.89242 13.2238C2.9679 13.2786 3.05723 13.3112 3.15028 13.3178C3.24333 13.3245 3.33638 13.3049 3.41888 13.2613L6.96731 11.3957L10.5158 13.2613C10.6126 13.3129 10.7251 13.3301 10.8329 13.3113C11.1048 13.2645 11.2876 13.0066 11.2408 12.7348L10.5626 8.78321L13.4329 5.98477C13.5111 5.90821 13.5626 5.80821 13.5783 5.69883C13.6204 5.4254 13.4298 5.17227 13.1564 5.13165Z" fill="#FF8906"/>
</svg>
