<svg width="25" height="25" viewBox="0 0 25 25" fill="none" xmlns="http://www.w3.org/2000/svg">
<mask id="mask0_142_2835" style="mask-type:luminance" maskUnits="userSpaceOnUse" x="2" y="9" width="21" height="15">
<path fill-rule="evenodd" clip-rule="evenodd" d="M2.50049 9.29395H22.5001V23.0379H2.50049V9.29395Z" fill="white"/>
</mask>
<g mask="url(#mask0_142_2835)">
<path fill-rule="evenodd" clip-rule="evenodd" d="M18.0655 23.0379H6.93549C4.49049 23.0379 2.50049 21.0489 2.50049 18.6029V13.7279C2.50049 11.2829 4.49049 9.29395 6.93549 9.29395H7.86849C8.28249 9.29395 8.61849 9.62995 8.61849 10.0439C8.61849 10.4579 8.28249 10.7939 7.86849 10.7939H6.93549C5.31649 10.7939 4.00049 12.1099 4.00049 13.7279V18.6029C4.00049 20.2219 5.31649 21.5379 6.93549 21.5379H18.0655C19.6835 21.5379 21.0005 20.2219 21.0005 18.6029V13.7189C21.0005 12.1059 19.6885 10.7939 18.0765 10.7939H17.1335C16.7195 10.7939 16.3835 10.4579 16.3835 10.0439C16.3835 9.62995 16.7195 9.29395 17.1335 9.29395H18.0765C20.5155 9.29395 22.5005 11.2789 22.5005 13.7189V18.6029C22.5005 21.0489 20.5105 23.0379 18.0655 23.0379Z" fill="#4F5665"/>
</g>
<mask id="mask1_142_2835" style="mask-type:luminance" maskUnits="userSpaceOnUse" x="11" y="2" width="3" height="15">
<path fill-rule="evenodd" clip-rule="evenodd" d="M11.75 2.5H13.25V16.0409H11.75V2.5Z" fill="white"/>
</mask>
<g mask="url(#mask1_142_2835)">
<path fill-rule="evenodd" clip-rule="evenodd" d="M12.5 16.041C12.086 16.041 11.75 15.705 11.75 15.291V3.25C11.75 2.836 12.086 2.5 12.5 2.5C12.914 2.5 13.25 2.836 13.25 3.25V15.291C13.25 15.705 12.914 16.041 12.5 16.041Z" fill="#4F5665"/>
</g>
<path fill-rule="evenodd" clip-rule="evenodd" d="M9.5852 6.92902C9.3942 6.92902 9.2022 6.85602 9.0562 6.71002C8.7632 6.41802 8.7612 5.94402 9.0542 5.65002L11.9692 2.72202C12.2502 2.43902 12.7502 2.43902 13.0312 2.72202L15.9472 5.65002C16.2392 5.94402 16.2382 6.41802 15.9452 6.71002C15.6512 7.00202 15.1772 7.00202 14.8852 6.70802L12.5002 4.31402L10.1162 6.70802C9.9702 6.85602 9.7772 6.92902 9.5852 6.92902Z" fill="#4F5665"/>
</svg>
