<svg width="21" height="21" viewBox="0 0 21 21" fill="none" xmlns="http://www.w3.org/2000/svg">
<path fill-rule="evenodd" clip-rule="evenodd" d="M18.0039 0.577294C18.6889 0.378019 19.431 0.570249 19.934 1.08253C20.437 1.5938 20.623 2.33957 20.418 3.02999L19.169 7.23188C19.05 7.63144 18.6339 7.85789 18.2359 7.73913C17.8389 7.61936 17.6129 7.19867 17.7319 6.80012L18.981 2.59722C19.051 2.36171 18.9259 2.2027 18.8689 2.14533C18.8119 2.08696 18.6519 1.96014 18.4209 2.02758L2.32937 6.70652C2.07336 6.781 2.01736 6.99537 2.00536 7.08394C1.99436 7.1725 1.99036 7.39392 2.21837 7.53482L5.60449 9.61816C5.9575 9.83555 6.0695 10.3005 5.85249 10.6568C5.71149 10.8883 5.46548 11.0171 5.21247 11.0171C5.07947 11.0171 4.94446 10.9819 4.82246 10.9064L1.43634 8.82206C0.765318 8.40942 0.413305 7.66667 0.518309 6.88265C0.623313 6.09762 1.15833 5.47464 1.91336 5.25523L18.0039 0.577294ZM16.5282 10.8492C16.6482 10.4487 17.0652 10.2212 17.4622 10.342C17.8592 10.4618 18.0852 10.8824 17.9662 11.282L15.6441 19.096C15.4191 19.8519 14.7971 20.3833 14.0201 20.4829C13.9331 20.495 13.8471 20.5 13.7611 20.5C13.083 20.5 12.463 20.1518 12.102 19.5539L8.00187 12.7645C7.82286 12.4666 7.86786 12.0841 8.11287 11.8386L13.9341 5.98007C14.2271 5.68518 14.7011 5.68518 14.9941 5.98007C15.2871 6.27496 15.2871 6.75302 14.9941 7.04791L9.58992 12.4877L13.3841 18.7699C13.5221 18.9984 13.7391 18.9964 13.8291 18.9863C13.9171 18.9742 14.1301 18.9199 14.2061 18.6643L16.5282 10.8492Z" fill="#4F5665"/>
</svg>
