<svg width="17" height="17" viewBox="0 0 17 17" fill="none" xmlns="http://www.w3.org/2000/svg">
<path fill-rule="evenodd" clip-rule="evenodd" d="M13.5028 1.88454C13.9595 1.75169 14.4541 1.87984 14.7895 2.22136C15.1248 2.56221 15.2488 3.05939 15.1122 3.51967L14.2795 6.32093C14.2001 6.5873 13.9228 6.73827 13.6574 6.65909C13.3928 6.57925 13.2421 6.29879 13.3214 6.03309L14.1541 3.23116C14.2008 3.07415 14.1175 2.96814 14.0795 2.92989C14.0415 2.89098 13.9348 2.80644 13.7808 2.85139L3.05308 5.97069C2.8824 6.02034 2.84507 6.16325 2.83707 6.2223C2.82974 6.28134 2.82707 6.42895 2.97907 6.52289L5.23649 7.91178C5.47183 8.05671 5.5465 8.36669 5.40183 8.60421C5.30782 8.75853 5.14382 8.84441 4.97514 8.84441C4.88647 8.84441 4.79647 8.82093 4.71514 8.77061L2.45772 7.38105C2.01037 7.10595 1.7757 6.61079 1.8457 6.08811C1.9157 5.56476 2.27238 5.14943 2.77573 5.00316L13.5028 1.88454ZM12.5189 8.7325C12.5989 8.46546 12.877 8.31382 13.1416 8.39433C13.4063 8.47418 13.557 8.75464 13.4776 9.02101L11.9296 14.2304C11.7796 14.7342 11.3649 15.0885 10.8469 15.1549C10.7889 15.163 10.7315 15.1663 10.6742 15.1663C10.2222 15.1663 9.80885 14.9342 9.56817 14.5356L6.83474 10.0093C6.7154 9.81073 6.74541 9.55577 6.90874 9.39205L10.7895 5.48639C10.9849 5.2898 11.3009 5.2898 11.4962 5.48639C11.6916 5.68298 11.6916 6.00169 11.4962 6.19828L7.89345 9.82482L10.4229 14.013C10.5149 14.1653 10.6595 14.1639 10.7195 14.1572C10.7782 14.1492 10.9202 14.1129 10.9709 13.9425L12.5189 8.7325Z" fill="white"/>
</svg>
